<svg width="820" height="820" viewBox="0 0 820 820" fill="none" xmlns="http://www.w3.org/2000/svg">
<path d="M85.7809 646.518H77.0141L64.6523 629.268H41.5685V646.518H34V601.268H70.0133C74.8066 601.268 78.5698 602.56 81.3029 605.143C84.036 607.685 85.4025 611.143 85.4025 615.518C85.4025 619.352 84.2882 622.435 82.0597 624.768C79.9994 626.935 77.1613 628.31 73.5452 628.893L85.7809 646.518ZM68.878 622.456C74.7225 622.456 77.6448 620.143 77.6448 615.518C77.6448 610.56 74.4913 608.081 68.1842 608.081H41.5685V622.456H68.878Z" fill="#626262"/>
<path d="M160.129 623.831C160.129 631.247 157.06 637.247 150.921 641.831C145.539 645.831 138.853 647.831 130.865 647.831C122.791 647.831 116.064 645.81 110.682 641.768C104.543 637.185 101.474 631.206 101.474 623.831C101.474 616.581 104.585 610.622 110.808 605.956C116.274 601.872 122.96 599.831 130.865 599.831C138.811 599.831 145.476 601.872 150.858 605.956C157.039 610.622 160.129 616.581 160.129 623.831ZM152.245 623.831C152.245 618.539 149.975 614.247 145.434 610.956C141.523 608.122 136.667 606.706 130.865 606.706C124.515 606.706 119.344 608.331 115.349 611.581C111.355 614.789 109.357 618.872 109.357 623.831C109.357 628.956 111.313 633.102 115.223 636.268C119.133 639.393 124.347 640.956 130.865 640.956C137.34 640.956 142.512 639.372 146.38 636.206C150.29 633.039 152.245 628.914 152.245 623.831Z" fill="#626262"/>
<path d="M235.291 623.143C235.291 630.518 232.621 636.477 227.281 641.018C221.983 645.56 214.94 647.831 206.152 647.831C198.121 647.831 191.415 645.81 186.033 641.768C179.936 637.185 176.887 631.206 176.887 623.831C176.887 616.581 179.978 610.622 186.159 605.956C191.583 601.872 198.457 599.831 206.783 599.831C216.832 599.831 225.073 603.477 231.506 610.768L224.442 614.268C219.691 609.227 213.594 606.706 206.152 606.706C200.35 606.706 195.493 608.122 191.583 610.956C187.042 614.247 184.771 618.539 184.771 623.831C184.771 628.914 186.726 633.039 190.637 636.206C194.547 639.372 199.719 640.956 206.152 640.956C216.243 640.956 222.803 637.06 225.83 629.268H204.575V622.456H235.291V623.143Z" fill="#626262"/>
<path d="M302.259 646.518H254.451V601.268H300.493V608.081H262.02V619.643H288.762V626.456H262.02V639.706H302.259V646.518Z" fill="#626262"/>
<path d="M361.603 646.518H318.778V601.268H326.347V639.706H361.603V646.518Z" fill="#626262"/>
<path d="M383.467 646.518H375.899V601.268H383.467V646.518Z" fill="#626262"/>
<path d="M460.392 623.831C460.392 631.247 457.322 637.247 451.183 641.831C445.801 645.831 439.116 647.831 431.127 647.831C423.054 647.831 416.327 645.81 410.944 641.768C404.806 637.185 401.736 631.206 401.736 623.831C401.736 616.581 404.848 610.622 411.071 605.956C416.537 601.872 423.222 599.831 431.127 599.831C439.074 599.831 445.738 601.872 451.12 605.956C457.301 610.622 460.392 616.581 460.392 623.831ZM452.508 623.831C452.508 618.539 450.237 614.247 445.696 610.956C441.786 608.122 436.93 606.706 431.127 606.706C424.778 606.706 419.606 608.331 415.612 611.581C411.617 614.789 409.62 618.872 409.62 623.831C409.62 628.956 411.575 633.102 415.486 636.268C419.396 639.393 424.61 640.956 431.127 640.956C437.602 640.956 442.774 639.372 446.642 636.206C450.553 633.039 452.508 628.914 452.508 623.831Z" fill="#626262"/>
<path d="M547.587 646.518H504.762V601.268H512.331V639.706H547.587V646.518Z" fill="#626262"/>
<path d="M609.383 646.518H561.575V601.268H607.617V608.081H569.144V619.643H595.885V626.456H569.144V639.706H609.383V646.518Z" fill="#626262"/>
<path d="M679.762 646.518H671.5L666.202 636.393H635.487L630.189 646.518H621.927L646.083 601.268H655.606L679.762 646.518ZM662.481 629.581L650.876 607.706L639.208 629.581H662.481Z" fill="#626262"/>
<path d="M736.996 646.518H694.171V601.268H701.74V639.706H736.996V646.518Z" fill="#626262"/>
<path d="M785 646.518H777.432V601.268H785V646.518Z" fill="#626262"/>
<path d="M421.842 224.634L415.94 219.715H409.545L406.593 222.666L402.166 219.223L396.017 218.239L389.869 228.077C392.328 228.323 397.395 228.864 397.985 229.061C398.723 229.307 400.445 223.158 402.166 224.388C403.544 225.372 405.692 228.733 406.593 230.291L420.367 232.504L424.548 244.556L390.115 241.358L423.564 254.394C411.562 254.394 406.429 256.361 405.364 257.345L452.586 260.789L434.14 275.792L436.6 277.267L464.392 260.051C462.916 253.656 469.557 218.731 470.295 217.009C470.885 215.632 480.215 214.304 484.806 213.812C496.022 215.976 497.514 217.829 496.858 218.485C491.348 218.091 488.987 219.469 488.495 220.207L488.741 222.912L496.858 222.666C499.809 223.06 506.614 227.093 509.647 229.061L501.285 228.569L498.579 233.242L502.761 236.685L513.582 248.983L507.311 245.663L503.99 247.507L494.152 253.164L490.463 281.449L477.182 294.484L499.809 295.468C500.203 293.894 511.943 289.401 517.764 287.351L528.586 289.565C530.717 292.025 535.472 297.534 537.44 299.895C539.407 302.256 541.211 308.749 541.867 311.701L533.013 304.568L537.932 312.93L542.113 324.982L534.734 317.849L531.537 320.555V331.623L527.602 325.474C525.044 325.671 516.862 320.145 513.091 317.358L499.563 317.604L464.392 325.474L454.48 344.683L445.454 358.923L473.984 367.286L482.347 394.832L472.017 442.055L504.482 453.369L517.272 471.077L515.304 484.851L511.861 496.656L509.893 484.851H503.007L499.071 487.31L495.628 498.132L493.66 488.786L482.347 475.997C461.523 467.306 420.072 449.63 420.859 448.45C421.646 447.269 431.025 443.695 435.616 442.055L412.496 422.379H430.205L443.486 399.751L418.399 408.114L410.529 402.211L407.577 427.79L375.603 480.916L393.312 482.391L410.529 501.576V526.171L404.626 516.333H400.199L397.739 526.171V540.436L393.312 528.138L385.442 526.171L382.982 534.533L381.506 546.831L375.603 534.533L360.354 526.171L350.024 504.035L347.073 478.948L334.775 487.31L341.662 461.731L328.381 471.077C326.807 469.897 334.939 457.468 339.203 451.401C331.726 450.221 326.905 447.63 325.429 446.482C328.971 444.121 345.597 441.235 353.468 440.088V418.936L360.354 408.114L350.024 390.897L310.18 367.286L316.083 321.047L297.883 300.879L298.866 323.998L282.634 335.804L292.472 347.61L278.149 340.926C280.285 346.791 278.796 343.349 277.715 340.723L278.149 340.926C278.018 340.566 277.874 340.171 277.715 339.739C274.96 332.262 280.83 310.061 284.109 299.895L297.391 296.452L321.002 311.701L319.526 368.762L347.073 376.14L348.549 360.399C352.09 352.922 368.061 339.247 375.603 333.344L373.636 278.251C371.668 271.561 367.241 297.763 365.274 311.701C362.519 310.127 355.271 298.255 351.992 292.516L350.024 304.322C346.483 300.78 337.071 276.284 332.808 264.478L316.083 280.711C316.083 268.905 320.674 241.03 322.97 228.569C322.576 225.421 309.688 237.751 303.294 244.31C302.113 232.504 311.328 212.828 316.083 204.466L311.656 201.022L326.413 196.103L301.818 179.87L340.186 181.346L330.84 172L382.49 185.281L397.739 194.136L419.875 201.022L429.221 204.466L424.794 211.844V221.19L421.842 224.634Z" fill="#515151"/>
<path d="M415.94 219.715L421.842 224.634L424.794 221.19V211.844L429.221 204.466L419.875 201.022L397.739 194.136L382.49 185.281L330.84 172L340.186 181.346L301.818 179.87L326.413 196.103L311.656 201.022L316.083 204.466C311.328 212.828 302.113 232.504 303.294 244.31C309.688 237.751 322.576 225.421 322.97 228.569C320.674 241.03 316.083 268.905 316.083 280.711L332.808 264.478C337.071 276.284 346.483 300.78 350.024 304.322L351.992 292.516C355.271 298.255 362.519 310.127 365.274 311.701C367.241 297.763 371.668 271.561 373.636 278.251L375.603 333.344C368.061 339.247 352.09 352.922 348.549 360.399L347.073 376.14L319.526 368.762L321.002 311.701L297.391 296.452L284.109 299.895C280.83 310.061 274.96 332.262 277.715 339.739C280.469 347.216 278.862 343.51 277.715 340.723L292.472 347.61L282.634 335.804L298.866 323.998L297.883 300.879L316.083 321.047L310.18 367.286L350.024 390.897L360.354 408.114L353.468 418.936V440.088C345.597 441.235 328.971 444.121 325.429 446.482C326.905 447.63 331.726 450.221 339.203 451.401C334.939 457.468 326.807 469.897 328.381 471.077L341.662 461.731L334.775 487.31L347.073 478.948L350.024 504.035L360.354 526.171L375.603 534.533L381.506 546.831L382.982 534.533L385.442 526.171L393.312 528.138L397.739 540.436V526.171L400.199 516.333H404.626L410.529 526.171V501.576L393.312 482.391L375.603 480.916L407.577 427.79L410.529 402.211L418.399 408.114L443.486 399.751L430.205 422.379H412.496L435.616 442.055C431.025 443.695 421.646 447.269 420.859 448.45C420.072 449.63 461.523 467.306 482.347 475.997L493.66 488.786L495.628 498.132L499.071 487.31L503.007 484.851H509.893L511.861 496.656L515.304 484.851L517.272 471.077L504.482 453.369L472.017 442.055L482.347 394.832L473.984 367.286L445.454 358.923L454.48 344.683L464.392 325.474L499.563 317.604L513.091 317.358C516.862 320.145 525.044 325.671 527.602 325.474L531.537 331.623V320.555L534.734 317.849L542.113 324.982L537.932 312.93L533.013 304.568L541.867 311.701C541.211 308.749 539.407 302.256 537.44 299.895C535.472 297.534 530.717 292.025 528.586 289.565L517.764 287.351C511.943 289.401 500.203 293.894 499.809 295.468L477.182 294.484L490.463 281.449L494.152 253.164L503.99 247.507L507.311 245.663L513.582 248.983L502.761 236.685L498.579 233.242L501.285 228.569L509.647 229.061C506.614 227.093 499.809 223.06 496.858 222.666L488.741 222.912L488.495 220.207C488.987 219.469 491.348 218.091 496.858 218.485C497.514 217.829 496.022 215.976 484.806 213.812C480.215 214.304 470.885 215.632 470.295 217.009C469.557 218.731 462.916 253.656 464.392 260.051L436.6 277.267L434.14 275.792L452.586 260.789L405.364 257.345C406.429 256.361 411.562 254.394 423.564 254.394L390.115 241.358L424.548 244.556L420.367 232.504L406.593 230.291C405.692 228.733 403.544 225.372 402.166 224.388C400.445 223.158 398.723 229.307 397.985 229.061C397.395 228.864 392.328 228.323 389.869 228.077L396.017 218.239L402.166 219.223L406.593 222.666L409.545 219.715H415.94Z" stroke="white" stroke-width="0.5"/>
<path d="M373.267 277.39L401.674 306.29L393.804 273.332C411.185 278.415 445.577 291.41 449.881 297.435C447.483 290.918 433.369 276.564 433.587 275.792C434.14 273.824 445.884 265.236 450.803 261.465M450.803 261.465L414.956 264.478L399.707 257.345C412.927 258.145 445.7 261.096 450.803 261.465Z" stroke="white" stroke-width="0.5"/>
<path d="M488.004 223.158V218.854L486.282 214.304C484.069 212.533 472.017 216.271 470.787 216.763C469.803 217.157 469.557 222.174 469.557 224.634L481.363 232.75M488.004 223.158L480.625 222.42L481.363 232.75M488.004 223.158H495.136L500.793 228.569L498.088 233.734M481.363 232.75L491.201 229.799L498.088 233.734M481.363 232.75L495.136 252.18L506.45 245.171L502.023 236.808L498.088 233.734M476.321 294.976L459.227 292.516L436.477 278.497L464.884 259.805L489.971 281.203L476.321 294.976ZM476.321 294.976L499.932 296.083M499.932 296.083L500.793 317.603C488.004 320.309 448.084 331.522 435.293 323.629M499.932 296.083L508.664 301.862M499.932 296.083L508.049 291.164L517.764 287.72M508.664 301.862L516.78 298.419M508.664 301.862L513.091 317.603L527.356 324.982L530.676 320.309L533.013 318.341M516.78 298.419L517.764 287.72M516.78 298.419L533.013 303.83M516.78 298.419L518.871 306.904L526.618 310.471L533.013 318.341M517.764 287.72L528.217 290.426L535.472 298.911L533.013 303.83M533.013 303.83L537.809 314.283L533.013 318.341M360.293 408.237L361.093 407.622C376.669 396.308 407.215 372.186 410.412 373.189M360.293 408.237L353.96 419.427M360.293 408.237C360.293 408.237 354.335 397.143 351.782 391.653M410.412 373.189C418.431 368.807 433.198 364.139 443.978 359.169M410.412 373.189C410.111 381.192 411.354 391.311 410.61 401.385M359.863 222.42C359.863 208.843 374.292 191.348 381.507 184.297L400.937 195.857M359.863 222.42C370.849 212.992 395.821 195.464 400.937 195.857M359.863 222.42L388.885 228.569L396.756 216.763M400.937 195.857L396.756 216.763M400.937 195.857C407.987 197.333 418.891 200.776 418.891 201.957C418.891 203.137 404.626 211.844 396.756 216.763M443.978 359.169C451.282 352.678 456.079 347.881 456.079 347.881C451.282 336.936 401.839 314.078 374.866 301.862C373.882 307.372 375.276 324.982 376.096 333.098C367.897 339.247 352.397 352.406 349.164 359.415C348.847 363.394 347.846 370.024 347.794 375.411M443.978 359.169C453.198 361.068 474.23 368.024 474.23 368.024C474.23 368.024 475.46 373.189 481.732 395.201M351.782 391.653C350.354 388.581 349.167 385.984 348.549 384.748C347.931 383.513 347.752 379.791 347.794 375.411M351.782 391.653L309.689 366.794M309.689 366.794L319.527 368.515M309.689 366.794L316.083 320.801M319.527 368.515L347.794 375.411M319.527 368.515L320.756 311.947M320.756 311.947L316.083 320.801M320.756 311.947L297.883 296.943M316.083 320.801L297.883 301.862M297.883 296.943V301.862M297.883 296.943C290.75 310.963 278.36 339.279 278.207 340.6M297.883 296.943L283.864 300.387L277.346 330.516L278.207 340.6M297.883 301.862L298.744 323.629L282.265 335.927M278.207 340.6L292.103 346.872L282.265 335.927M278.207 340.6L282.265 335.927" stroke="white" stroke-width="0.5"/>
<path d="M312.394 201.392L348.057 191.185M312.394 201.392L348.057 198.563M312.394 201.392L326.905 196.35L302.802 179.379L380.277 185.036M312.394 201.392L316.821 203.974M348.057 191.185L363.798 202.006M348.057 191.185V198.563M363.798 202.006L341.662 211.353L316.821 203.974M363.798 202.006L348.057 198.563M423.872 244.064L372.898 238.653L360.354 222.175M423.872 244.064C422.765 240.867 421.289 233.242 419.875 232.873C417.654 232.294 398.477 229.553 388.639 228.569M423.872 244.064L388.639 228.569M360.354 222.175L388.639 228.569M360.354 222.175L332.808 264.109L316.821 279.358C318.051 263.003 322.232 234.472 322.97 228.569C323.45 224.723 309.893 236.645 304.154 243.203C302.187 233.759 311.098 212.961 316.821 203.974M428.36 204.958L419.875 201.392L415.448 204.958L424.794 211.353L428.36 204.958Z" stroke="white" stroke-width="0.5"/>
<path d="M435.573 442.114L471.882 442.114M471.882 442.114L494.815 462.18M471.882 442.114C473.475 448.644 477.902 464.664 482.871 476.513M494.815 462.18L502.698 484.396M494.815 462.18L503.653 453.819" stroke="white" stroke-width="0.5"/>
<path d="M377.047 494.429L364.626 498.012L358.415 523.572" stroke="white" stroke-width="0.5"/>
<path d="M376.809 494.428C380.471 491.801 388.084 491.801 393.052 483.201" stroke="white" stroke-width="0.5"/>
<path d="M385.635 525.722C383.042 521.443 379.23 502.855 377.764 495.026C384.709 499.599 397.07 511.862 400.219 515.955" stroke="white" stroke-width="0.5"/>
</svg>
