<svg width="250" height="250" viewBox="0 0 250 250" fill="none" xmlns="http://www.w3.org/2000/svg">
<path d="M129.995 75.2577L127.835 73.4579H125.496L124.416 74.5378L122.796 73.2779L120.546 72.918L118.297 76.5176C119.196 76.6076 121.05 76.8055 121.266 76.8775C121.536 76.9675 122.166 74.7178 122.796 75.1677C123.3 75.5277 124.086 76.7575 124.416 77.3275L129.455 78.1374L130.985 82.5468L118.387 81.377L130.625 86.1464C126.234 86.1464 124.356 86.8663 123.966 87.2263L141.244 88.4861L134.495 93.9755L135.395 94.5154L145.563 88.2162C145.023 85.8765 147.453 73.098 147.723 72.468C147.939 71.9641 151.353 71.4782 153.032 71.2982C157.136 72.0901 157.682 72.768 157.442 73.008C155.426 72.864 154.562 73.3679 154.382 73.6379L154.472 74.6278L157.442 74.5378C158.522 74.6818 161.012 76.1576 162.121 76.8775L159.062 76.6975L158.072 78.4073L159.602 79.6672L163.561 84.1667L161.267 82.9518L160.052 83.6267L156.452 85.6965L155.102 96.0452L150.243 100.815L158.522 101.175C158.666 100.599 162.961 98.9549 165.091 98.205L169.051 99.0149C169.83 99.9148 171.57 101.931 172.29 102.794C173.01 103.658 173.67 106.034 173.91 107.114L170.67 104.504L172.47 107.564L174 111.973L171.3 109.364L170.13 110.354V114.403L168.691 112.153C167.755 112.225 164.761 110.204 163.381 109.184L158.432 109.274L145.563 112.153L141.937 119.182L138.634 124.392L149.073 127.452L152.133 137.53L148.353 154.808L160.232 158.948L164.911 165.427L164.191 170.466L162.931 174.786L162.211 170.466H159.692L158.252 171.366L156.992 175.326L156.272 171.906L152.133 167.227C144.513 164.047 129.347 157.58 129.635 157.148C129.923 156.716 133.355 155.408 135.035 154.808L126.576 147.609H133.055L137.914 139.33L128.735 142.39L125.856 140.23L124.776 149.589L113.077 169.027L119.556 169.567L125.856 176.586V185.585L123.696 181.985H122.076L121.176 185.585V190.804L119.556 186.305L116.677 185.585L115.777 188.644L115.237 193.144L113.077 188.644L107.498 185.585L103.718 177.486L102.638 168.307L98.139 171.366L100.659 162.007L95.7993 165.427C95.2233 164.995 98.199 160.448 99.7588 158.228C97.0231 157.796 95.2593 156.848 94.7194 156.428C96.0152 155.564 102.099 154.508 104.978 154.088V146.349L107.498 142.39L103.718 136.09L89.1401 127.452L91.2998 110.534L84.6406 103.154L85.0005 111.613L79.0613 115.933L82.6608 120.252L77.4206 117.807C78.2019 119.953 77.6571 118.694 77.2615 117.733L77.4206 117.807C77.3726 117.675 77.3197 117.531 77.2615 117.373C76.2536 114.637 78.4013 106.514 79.6012 102.794L84.4606 101.535L93.0996 107.114L92.5597 127.991L102.638 130.691L103.178 124.932C104.474 122.196 110.318 117.193 113.077 115.033L112.357 94.8754C111.637 92.4277 110.018 102.015 109.298 107.114C108.29 106.538 105.638 102.195 104.438 100.095L103.718 104.414C102.422 103.118 98.9789 94.1555 97.4191 89.836L91.2998 95.7753C91.2998 91.4558 92.9796 81.257 93.8195 76.6975C93.6755 75.5457 88.9601 80.0571 86.6204 82.4569C86.1884 78.1374 89.56 70.9382 91.2998 67.8786L89.68 66.6187L95.0794 64.819L86.0804 58.8797L100.119 59.4196L96.6992 56L115.597 60.8594L121.176 64.099L129.275 66.6187L132.695 67.8786L131.075 70.5783V73.9979L129.995 75.2577Z" fill="#0DE2FF"/>
<path d="M127.835 73.4579L129.995 75.2577L131.075 73.9979V70.5783L132.695 67.8786L129.275 66.6187L121.176 64.099L115.597 60.8594L96.6992 56L100.119 59.4196L86.0804 58.8797L95.0794 64.819L89.68 66.6187L91.2998 67.8786C89.56 70.9382 86.1884 78.1374 86.6204 82.4569C88.9601 80.0571 93.6755 75.5457 93.8195 76.6975C92.9796 81.257 91.2998 91.4558 91.2998 95.7753L97.4191 89.836C98.9789 94.1555 102.422 103.118 103.718 104.414L104.438 100.095C105.638 102.195 108.29 106.538 109.298 107.114C110.018 102.015 111.637 92.4277 112.357 94.8754L113.077 115.033C110.318 117.193 104.474 122.196 103.178 124.932L102.638 130.691L92.5597 127.991L93.0996 107.114L84.4606 101.535L79.6012 102.794C78.4013 106.514 76.2536 114.637 77.2615 117.373C78.2693 120.108 77.6814 118.753 77.2615 117.733L82.6608 120.252L79.0613 115.933L85.0005 111.613L84.6406 103.154L91.2998 110.534L89.1401 127.452L103.718 136.09L107.498 142.39L104.978 146.349V154.088C102.099 154.508 96.0152 155.564 94.7194 156.428C95.2593 156.848 97.0231 157.796 99.7588 158.228C98.199 160.448 95.2233 164.995 95.7993 165.427L100.659 162.007L98.139 171.366L102.638 168.307L103.718 177.486L107.498 185.585L113.077 188.644L115.237 193.144L115.777 188.644L116.677 185.585L119.556 186.305L121.176 190.804V185.585L122.076 181.985H123.696L125.856 185.585V176.586L119.556 169.567L113.077 169.027L124.776 149.589L125.856 140.23L128.735 142.39L137.914 139.33L133.055 147.609H126.576L135.035 154.808C133.355 155.408 129.923 156.716 129.635 157.148C129.347 157.58 144.513 164.047 152.133 167.227L156.272 171.906L156.992 175.326L158.252 171.366L159.692 170.466H162.211L162.931 174.786L164.191 170.466L164.911 165.427L160.232 158.948L148.353 154.808L152.133 137.53L149.073 127.452L138.634 124.392L141.937 119.182L145.563 112.153L158.432 109.274L163.381 109.184C164.761 110.204 167.755 112.225 168.691 112.153L170.13 114.403V110.354L171.3 109.364L174 111.973L172.47 107.564L170.67 104.504L173.91 107.114C173.67 106.034 173.01 103.658 172.29 102.794C171.57 101.931 169.83 99.9148 169.051 99.0149L165.091 98.205C162.961 98.9549 158.666 100.599 158.522 101.175L150.243 100.815L155.102 96.0452L156.452 85.6965L160.052 83.6267L161.267 82.9518L163.561 84.1667L159.602 79.6672L158.072 78.4073L159.062 76.6975L162.121 76.8775C161.012 76.1576 158.522 74.6818 157.442 74.5378L154.472 74.6278L154.382 73.6379C154.562 73.3679 155.426 72.864 157.442 73.008C157.682 72.768 157.136 72.0901 153.032 71.2982C151.353 71.4782 147.939 71.9641 147.723 72.468C147.453 73.098 145.023 85.8765 145.563 88.2162L135.395 94.5154L134.495 93.9755L141.244 88.4861L123.966 87.2263C124.356 86.8663 126.234 86.1464 130.625 86.1464L118.387 81.377L130.985 82.5468L129.455 78.1374L124.416 77.3275C124.086 76.7575 123.3 75.5277 122.796 75.1677C122.166 74.7178 121.536 76.9675 121.266 76.8775C121.05 76.8055 119.196 76.6076 118.297 76.5176L120.546 72.918L122.796 73.2779L124.416 74.5378L125.496 73.4579H127.835Z" stroke="white" stroke-width="0.5"/>
<path d="M112.222 94.5602L122.616 105.134L119.736 93.0754C126.096 94.9352 138.679 99.6896 140.254 101.894C139.377 99.5097 134.213 94.2581 134.292 93.9753C134.495 93.2554 138.792 90.1132 140.591 88.7334M140.591 88.7334L127.476 89.8358L121.896 87.2261C126.733 87.5186 138.724 88.5984 140.591 88.7334Z" stroke="white" stroke-width="0.5"/>
<path d="M154.202 74.7178V73.143L153.573 71.4782C152.763 70.8303 148.353 72.1981 147.903 72.3781C147.543 72.5221 147.453 74.3579 147.453 75.2578L151.773 78.2274M154.202 74.7178L151.503 74.4479L151.773 78.2274M154.202 74.7178H156.812L158.882 76.6976L157.892 78.5874M151.773 78.2274L155.372 77.1475L157.892 78.5874M151.773 78.2274L156.812 85.3366L160.952 82.7719L159.332 79.7122L157.892 78.5874M149.928 100.995L143.674 100.095L135.35 94.9654L145.743 88.1262L154.922 95.9553L149.928 100.995ZM149.928 100.995L158.567 101.4M158.567 101.4L158.882 109.274C154.202 110.264 139.597 114.366 134.917 111.478M158.567 101.4L161.762 103.514M158.567 101.4L161.537 99.5999L165.091 98.34M161.762 103.514L164.731 102.255M161.762 103.514L163.381 109.274L168.601 111.973L169.816 110.264L170.67 109.544M164.731 102.255L165.091 98.34M164.731 102.255L170.67 104.234M164.731 102.255L165.496 105.359L168.331 106.664L170.67 109.544M165.091 98.34L168.916 99.3299L171.57 102.435L170.67 104.234M170.67 104.234L172.425 108.059L170.67 109.544M107.475 142.435L107.768 142.21C113.467 138.07 124.643 129.245 125.813 129.611M107.475 142.435L105.158 146.529M107.475 142.435C107.475 142.435 105.295 138.376 104.362 136.367M125.813 129.611C128.747 128.008 134.15 126.3 138.094 124.482M125.813 129.611C125.703 132.54 126.158 136.242 125.885 139.928M107.318 74.4479C107.318 69.4804 112.597 63.0792 115.237 60.4995L122.346 64.729M107.318 74.4479C111.337 70.9983 120.474 64.585 122.346 64.729M107.318 74.4479L117.937 76.6976L120.816 72.3781M122.346 64.729L120.816 72.3781M122.346 64.729C124.926 65.2689 128.915 66.5288 128.915 66.9607C128.915 67.3927 123.696 70.5783 120.816 72.3781M138.094 124.482C140.767 122.107 142.522 120.352 142.522 120.352C140.767 116.347 122.676 107.984 112.807 103.514C112.447 105.53 112.957 111.973 113.257 114.943C110.258 117.193 104.586 122.007 103.403 124.572C103.288 126.028 102.921 128.453 102.902 130.425M138.094 124.482C141.468 125.176 149.163 127.722 149.163 127.722C149.163 127.722 149.613 129.611 151.908 137.665M104.362 136.367C103.839 135.243 103.404 134.293 103.178 133.841C102.952 133.389 102.887 132.027 102.902 130.425M104.362 136.367L88.9602 127.272M88.9602 127.272L92.5597 127.902M88.9602 127.272L91.2999 110.444M92.5597 127.902L102.902 130.425M92.5597 127.902L93.0097 107.204M93.0097 107.204L91.2999 110.444M93.0097 107.204L84.6407 101.715M91.2999 110.444L84.6407 103.514M84.6407 101.715V103.514M84.6407 101.715C82.031 106.844 77.4977 117.205 77.4415 117.688M84.6407 101.715L79.5113 102.974L77.1265 113.998L77.4415 117.688M84.6407 103.514L84.9556 111.478L78.9263 115.978M77.4415 117.688L82.5259 119.982L78.9263 115.978M77.4415 117.688L78.9263 115.978" stroke="white" stroke-width="0.5"/>
<path d="M89.9499 66.7537L102.998 63.0192M89.9499 66.7537L102.998 65.7189M89.9499 66.7537L95.2593 64.909L86.4404 58.6997L114.787 60.7695M89.9499 66.7537L91.5698 67.6986M102.998 63.0192L108.758 66.9787M102.998 63.0192V65.7189M108.758 66.9787L100.659 70.3983L91.5698 67.6986M108.758 66.9787L102.998 65.7189M130.738 82.3669L112.087 80.3871L107.498 74.3578M130.738 82.3669C130.333 81.197 129.793 78.4074 129.275 78.2724C128.463 78.0605 121.446 77.0575 117.847 76.6976M130.738 82.3669L117.847 76.6976M107.498 74.3578L117.847 76.6976M107.498 74.3578L97.4191 89.701L91.5698 95.2804C92.0197 89.2961 93.5495 78.8573 93.8195 76.6976C93.9954 75.2905 89.0351 79.6522 86.9353 82.0519C86.2154 78.5963 89.4757 70.9869 91.5698 67.6986M132.38 68.0586L129.275 66.7537L127.655 68.0586L131.075 70.3983L132.38 68.0586Z" stroke="white" stroke-width="0.5"/>
<path d="M135.019 154.83L148.304 154.83M148.304 154.83L156.694 162.172M148.304 154.83C148.887 157.219 150.506 163.081 152.324 167.416M156.694 162.172L159.579 170.3M156.694 162.172L159.928 159.113" stroke="white" stroke-width="0.5"/>
<path d="M113.605 173.971L109.061 175.282L106.788 184.634" stroke="white" stroke-width="0.5"/>
<path d="M113.518 173.971C114.858 173.009 117.643 173.009 119.461 169.863" stroke="white" stroke-width="0.5"/>
<path d="M116.747 185.42C115.799 183.855 114.404 177.053 113.868 174.189C116.409 175.862 120.932 180.349 122.083 181.847" stroke="white" stroke-width="0.5"/>
</svg>
