<svg width="192" height="192" viewBox="0 0 192 192" fill="none" xmlns="http://www.w3.org/2000/svg">
<path d="M45.3948 95.0107C44.6105 95.9817 45.0524 97.6656 46.2123 98.1264L78.6508 111.252L91.7765 143.691C92.0745 144.415 92.8312 144.925 93.6143 144.93C94.3973 144.94 95.1601 144.433 95.4667 143.713C106.66 117.241 117.305 90.5205 128.59 64.0969C129.07 63.3756 129.005 62.3372 128.439 61.6816C127.872 61.0259 126.855 60.8103 126.071 61.1801L46.1681 94.4141C45.8665 94.5453 45.5983 94.7524 45.3947 95.0107H45.3948ZM52.2228 96.2261L118.337 68.7373L79.7115 107.363L52.2228 96.2261ZM82.54 110.191L121.099 71.632L93.6327 137.636L82.54 110.191Z" fill="#0D80FF"/>
</svg>
