<svg width="192" height="192" viewBox="0 0 192 192" fill="none" xmlns="http://www.w3.org/2000/svg">
<path d="M95.5 77.5246C100.091 77.5246 103.763 73.8087 103.763 69.1639C103.763 64.5191 100.091 60.8033 95.5 60.8033C90.9093 60.8033 87.2367 64.5191 87.2367 69.1639C87.2367 73.8087 90.9093 77.5246 95.5 77.5246ZM95.5 63.5902C98.5299 63.5902 101.009 66.0984 101.009 69.1639C101.009 72.2295 98.5299 74.7377 95.5 74.7377C92.4701 74.7377 89.9912 72.2295 89.9912 69.1639C89.9912 66.0984 92.4701 63.5902 95.5 63.5902ZM86.3186 111.432H80.3507V95.082C80.3507 87.1858 86.6858 80.776 94.49 80.776H96.51C104.314 80.776 110.649 87.1858 110.649 95.082V111.432H104.681C103.947 111.432 103.304 110.781 103.304 110.038C103.304 109.295 103.947 108.645 104.681 108.645H107.895V95.082C107.895 88.765 102.753 83.5628 96.51 83.5628H94.49C88.2467 83.5628 83.1051 88.765 83.1051 95.082V108.645H86.3186C87.0531 108.645 87.6958 109.295 87.6958 110.038C87.6958 110.781 87.0531 111.432 86.3186 111.432ZM103.029 95.6393H102.111V131.404C102.111 132.148 101.468 132.798 100.733 132.798C99.9989 132.798 99.3562 132.148 99.3562 131.404V92.8525H103.029C103.763 92.8525 104.406 93.5027 104.406 94.2459C104.406 94.9891 103.855 95.6393 103.029 95.6393ZM124.697 66.9344C128.461 66.9344 131.583 63.776 131.583 59.9672C131.583 56.1585 128.461 53 124.697 53C120.933 53 117.811 56.1585 117.811 59.9672C117.811 63.776 120.933 66.9344 124.697 66.9344ZM124.697 55.7869C126.992 55.7869 128.829 57.6448 128.829 59.9672C128.829 62.2896 126.992 64.1475 124.697 64.1475C122.402 64.1475 120.565 62.2896 120.565 59.9672C120.565 57.6448 122.402 55.7869 124.697 55.7869ZM137 80.5902V93.8743H131.95C131.216 93.8743 130.573 93.224 130.573 92.4809C130.573 91.7377 131.216 91.0874 131.95 91.0874H134.246V80.5902C134.246 75.6667 130.298 71.6721 125.431 71.6721H123.779C118.913 71.6721 114.965 75.6667 114.965 80.5902V91.0874H117.26C117.994 91.0874 118.637 91.7377 118.637 92.4809C118.637 93.224 117.994 93.8743 117.26 93.8743H112.21V80.5902C112.21 74.1803 117.352 68.8852 123.779 68.8852H125.431C131.858 68.8852 137 74.1803 137 80.5902ZM119.28 108.552V81.3333H118.913C118.178 81.3333 117.535 80.6831 117.535 79.9399C117.535 79.1967 118.178 78.5464 118.913 78.5464H122.034V108.552C122.034 109.295 121.392 109.945 120.657 109.945C119.923 109.945 119.28 109.295 119.28 108.552ZM128.737 109.945C128.002 109.945 127.36 109.295 127.36 108.552V78.5464H130.481C131.216 78.5464 131.858 79.1967 131.858 79.9399C131.858 80.6831 131.308 81.3333 130.481 81.3333H130.114V108.552C130.114 109.295 129.471 109.945 128.737 109.945ZM134.154 107.623C134.154 111.525 129.93 114.776 124.605 114.776C122.952 114.776 121.3 114.404 119.923 113.847L107.344 129.732C106.793 134.377 101.743 138 95.5 138C89.2566 138 84.115 134.377 83.656 129.732L70.9856 113.847C69.6084 114.404 68.0476 114.776 66.3031 114.776C61.0697 114.776 56.7544 111.525 56.7544 107.623C56.7544 105.579 57.948 103.721 59.7843 102.421V105.393C59.2334 106.044 58.958 106.88 58.958 107.623C58.958 110.317 62.2633 112.546 66.3031 112.546C70.2511 112.546 73.6482 110.317 73.6482 107.623C73.6482 106.88 73.3728 106.137 72.9137 105.486V102.421C74.75 103.721 75.8518 105.579 75.8518 107.623C75.8518 109.481 74.9336 111.153 73.3728 112.454L84.2069 126.109C84.8496 124.716 85.9513 123.508 87.3285 122.486V126.295C86.6858 127.131 86.3186 128.06 86.3186 128.989C86.3186 132.333 90.542 135.213 95.5 135.213C100.458 135.213 104.681 132.333 104.681 128.989C104.681 127.967 104.314 127.038 103.671 126.295V122.486C105.049 123.508 106.15 124.716 106.793 126.109L117.627 112.454C116.066 111.153 115.148 109.481 115.148 107.623C115.148 105.579 116.342 103.721 118.178 102.421V105.393C117.627 106.044 117.352 106.88 117.352 107.623C117.352 110.317 120.657 112.546 124.697 112.546C128.645 112.546 132.042 110.317 132.042 107.623C132.042 106.88 131.767 106.137 131.308 105.486V102.421C133.052 103.721 134.154 105.579 134.154 107.623ZM66.3031 66.9344C70.0675 66.9344 73.1892 63.776 73.1892 59.9672C73.1892 56.1585 70.0675 53 66.3031 53C62.5387 53 59.417 56.1585 59.417 59.9672C59.417 63.776 62.5387 66.9344 66.3031 66.9344ZM66.3031 55.7869C68.5985 55.7869 70.4347 57.6448 70.4347 59.9672C70.4347 62.2896 68.5985 64.1475 66.3031 64.1475C64.0077 64.1475 62.1715 62.2896 62.1715 59.9672C62.1715 57.6448 64.0077 55.7869 66.3031 55.7869ZM58.958 93.8743H54V80.5902C54 74.1803 59.1416 68.8852 65.5686 68.8852H67.2212C73.5564 68.8852 78.7898 74.0874 78.7898 80.5902V93.8743H73.74C73.0055 93.8743 72.3628 93.224 72.3628 92.4809C72.3628 91.7377 73.0055 91.0874 73.74 91.0874H76.0354V80.5902C76.0354 75.6667 72.0874 71.6721 67.2212 71.6721H65.5686C60.7024 71.6721 56.7544 75.6667 56.7544 80.5902V91.0874H59.0498C59.7843 91.0874 60.427 91.7377 60.427 92.4809C60.427 93.224 59.7843 93.8743 58.958 93.8743ZM60.8861 108.552V81.3333H60.5188C59.7843 81.3333 59.1416 80.6831 59.1416 79.9399C59.1416 79.1967 59.6925 78.5464 60.5188 78.5464H63.6405V108.552C63.6405 109.295 62.9978 109.945 62.2633 109.945C61.5288 109.945 60.8861 109.295 60.8861 108.552ZM72.1792 81.3333H71.8119V108.552C71.8119 109.295 71.1693 109.945 70.4347 109.945C69.7002 109.945 69.0575 109.295 69.0575 108.552V78.5464H72.1792C72.9137 78.5464 73.5564 79.1967 73.5564 79.9399C73.5564 80.6831 72.9137 81.3333 72.1792 81.3333ZM88.7976 131.404V95.6393H87.8794C87.1449 95.6393 86.5022 94.9891 86.5022 94.2459C86.5022 93.5027 87.1449 92.8525 87.8794 92.8525H91.552V131.404C91.552 132.148 90.9093 132.798 90.1748 132.798C89.4403 132.798 88.7976 132.148 88.7976 131.404Z" fill="#0D80FF"/>
</svg>
