<svg width="192" height="192" viewBox="0 0 192 192" fill="none" xmlns="http://www.w3.org/2000/svg">
<path d="M124.462 125.889H97.607L67.937 96.219V69.364L55 56.427V138.826H137.399L124.462 125.889ZM63.562 107.152V108.678H56.128V107.152H63.562ZM56.128 104.25V102.724H60.043V104.25H56.128ZM56.128 99.996V98.47H63.562V99.996H56.128ZM56.227 96.91V95.384H60.142V96.91H56.227ZM56.227 93.47V91.944H63.661V93.47H56.227ZM56.227 89.041V87.515H60.142V89.041H56.227ZM56.227 84.788V83.262H63.661V84.788H56.227ZM56.029 67.254H63.463V68.78H56.029V67.254ZM56.029 71.507H59.944V73.033H56.029V71.507ZM56.029 75.936H63.463V77.462H56.029V75.936ZM56.029 79.376H59.944V80.902H56.029V79.376ZM56.128 110.592H60.043V112.118H56.128V110.592ZM56.326 118.731H60.241V120.257H56.326V118.731ZM60.241 128.126H56.326V126.6H60.241V128.126ZM63.76 124.686H56.326V123.16H63.76V124.686ZM63.76 116.004H56.326V114.478H63.76V116.004ZM66.035 137.548H64.509V130.114H66.035V137.548ZM70.289 137.548H68.763V133.633H70.289V137.548ZM74.717 137.548H73.191V130.114H74.717V137.548ZM78.157 137.548H76.631V133.633H78.157V137.548ZM82.043 137.35H80.517V129.916H82.043V137.35ZM86.297 137.35H84.771V133.435H86.297V137.35ZM90.725 137.35H89.199V129.916H90.725V137.35ZM67.937 125.889V102.909L90.917 125.889H67.937ZM94.165 137.35H92.639V133.435H94.165V137.35ZM97.251 137.449H95.725V130.015H97.251V137.449ZM101.505 137.449H99.979V133.534H101.505V137.449ZM105.933 137.449H104.407V130.015H105.933V137.449ZM109.373 137.449H107.847V133.534H109.373V137.449ZM113.259 137.251H111.733V129.817H113.259V137.251ZM117.513 137.251H115.987V133.336H117.513V137.251ZM121.941 137.251H120.415V129.817H121.941V137.251ZM123.855 137.251V133.336H125.381V137.251H123.855Z" fill="#0D80FF"/>
<path d="M76.8 53L67.793 62.007L127.816 122.03L136.823 113.023L76.8 53ZM70.165 62.716L75.421 57.46L76.5 58.539L71.244 63.795L70.165 62.716ZM73.173 65.723L75.941 62.955L77.02 64.034L74.252 66.802L73.173 65.723ZM76.304 68.855L81.56 63.599L82.639 64.678L77.383 69.934L76.304 68.855ZM78.737 71.287L81.505 68.519L82.584 69.598L79.816 72.366L78.737 71.287ZM81.624 73.895L86.88 68.639L87.959 69.718L82.703 74.974L81.624 73.895ZM84.632 76.903L87.4 74.135L88.479 75.214L85.711 77.982L84.632 76.903ZM87.764 80.034L93.02 74.778L94.099 75.857L88.843 81.113L87.764 80.034ZM90.196 82.466L92.964 79.698L94.043 80.777L91.275 83.545L90.196 82.466ZM92.308 84.719L97.564 79.463L98.643 80.542L93.387 85.798L92.308 84.719ZM95.316 87.726L98.084 84.958L99.163 86.037L96.395 88.805L95.316 87.726ZM98.447 90.858L103.703 85.602L104.782 86.681L99.526 91.937L98.447 90.858ZM100.88 93.29L103.648 90.522L104.727 91.601L101.959 94.369L100.88 93.29ZM103.768 95.898L109.024 90.642L110.103 91.721L104.847 96.977L103.768 95.898ZM106.775 98.906L109.543 96.138L110.622 97.217L107.854 99.985L106.775 98.906ZM109.907 102.037L115.163 96.781L116.242 97.86L110.986 103.116L109.907 102.037ZM112.339 104.469L115.107 101.701L116.186 102.78L113.418 105.548L112.339 104.469ZM114.708 106.838L119.964 101.582L121.043 102.661L115.787 107.917L114.708 106.838ZM117.716 109.846L120.484 107.078L121.563 108.157L118.795 110.925L117.716 109.846ZM124.359 116.489L123.28 115.41L126.048 112.642L127.127 113.721L124.359 116.489ZM121.926 114.057L120.847 112.978L126.103 107.722L127.182 108.801L121.926 114.057Z" fill="#0D80FF"/>
</svg>
