<svg width="192" height="192" viewBox="0 0 192 192" fill="none" xmlns="http://www.w3.org/2000/svg">
<path d="M135.586 90.3861H133.839C132.354 76.148 123.094 64.2683 110.429 58.9399H125.016V60.4248C125.016 61.211 125.715 61.9098 126.501 61.9098H132.441C133.227 61.9098 133.926 61.211 133.926 60.4248V54.485C133.926 53.6988 133.227 53 132.441 53H126.501C125.715 53 125.016 53.6988 125.016 54.485V55.9699H100.034V54.485C100.034 53.6988 99.3351 53 98.5489 53H92.609C91.8229 53 91.1241 53.6988 91.1241 54.485V55.9699H66.1418V54.485C66.1418 53.6988 65.443 53 64.6568 53H58.7169C57.8434 53 57.1446 53.6115 57.1446 54.485V60.4248C57.1446 61.211 57.8434 61.9098 58.6296 61.9098H64.5694C65.3556 61.9098 66.0544 61.211 66.0544 60.4248V58.9399H80.7293C68.0635 64.2683 58.8043 76.148 57.232 90.3861H55.485C54.6988 90.3861 54 91.0849 54 91.8711V97.811C54 98.5971 54.6988 99.2959 55.485 99.2959H61.5122C62.2983 99.2959 62.9971 98.5971 62.9971 97.811V91.8711C62.9971 91.0849 62.2983 90.3861 61.5122 90.3861H60.2893C62.211 74.2262 74.9642 61.2983 91.1241 59.2893V60.5122C91.1241 61.2983 91.8229 61.9971 92.609 61.9971H98.5489C99.3351 61.9971 100.034 61.2983 100.034 60.5122V59.2019C116.194 61.211 128.947 74.1389 130.869 90.2988H129.646C128.86 90.2988 128.161 90.9976 128.161 91.7838V97.811C128.161 98.5971 128.86 99.2959 129.646 99.2959H135.586C136.372 99.2959 137.071 98.5971 137.071 97.811V91.8711C137.158 90.9976 136.459 90.3861 135.586 90.3861ZM130.956 58.9399H127.986V57.4549V55.9699H130.956V58.9399ZM60.2019 55.9699H63.1718V58.9399H60.2019V55.9699ZM60.0272 94.6663V96.326H57.0573V94.6663V93.7055C57.0573 93.6181 57.0573 93.4434 57.0573 93.3561H60.0272V94.6663ZM95.579 55.9699C96.1031 55.9699 96.5398 55.9699 97.0639 55.9699V58.9399H94.094V55.9699C94.6181 55.9699 95.0549 55.9699 95.579 55.9699ZM134.101 93.7055V94.6663V96.326H131.131V94.6663V93.3561H134.101C134.101 93.4434 134.101 93.6181 134.101 93.7055Z" fill="#0D80FF"/>
<path d="M96.9766 64.8796C96.7145 64.3555 96.1904 64.0061 95.579 64.0061C94.9675 64.0061 94.4434 64.3555 94.1814 64.8796L74.7021 109.516C74.5274 109.865 74.5274 110.302 74.7021 110.651V110.739C74.8768 111.176 75.2262 111.525 75.663 111.612C80.2926 113.185 83.4372 117.552 83.4372 122.444C83.4372 124.453 82.9131 126.549 81.8649 128.296C81.8649 128.384 81.7775 128.384 81.7775 128.471C81.6028 128.733 81.5155 128.995 81.5155 129.344V136.944C81.5155 137.73 82.2143 138.429 83.0005 138.429L108.245 138.604C109.031 138.604 109.73 137.905 109.73 137.119C109.73 136.333 109.031 135.634 108.245 135.634L84.4854 135.372V131.616H107.633C108.245 131.616 108.856 131.266 109.031 130.655L109.468 129.519C109.642 129.082 109.555 128.646 109.38 128.209C108.332 126.462 107.808 124.453 107.808 122.356C107.808 117.465 110.953 113.097 115.582 111.525C116.019 111.35 116.368 111.088 116.543 110.651V110.564C116.718 110.215 116.63 109.778 116.543 109.429L96.9766 64.8796ZM95.579 106.546C97.2386 106.546 98.5489 107.856 98.5489 109.516C98.5489 111.176 97.2386 112.486 95.579 112.486C93.9193 112.486 92.609 111.176 92.609 109.516C92.609 107.856 93.9193 106.546 95.579 106.546ZM104.751 122.444C104.751 124.628 105.188 126.724 106.148 128.646H85.0095C85.883 126.724 86.4071 124.628 86.4071 122.444C86.4071 116.766 83.0878 111.7 78.0215 109.341L94.094 72.5665V103.663C91.4735 104.362 89.5518 106.721 89.5518 109.516C89.5518 112.835 92.2596 115.543 95.579 115.543C98.8983 115.543 101.606 112.835 101.606 109.516C101.606 106.721 99.6844 104.362 97.0639 103.663V72.6538L113.136 109.429C108.07 111.7 104.751 116.766 104.751 122.444Z" fill="#0D80FF"/>
</svg>
